<svg xmlns="http://www.w3.org/2000/svg" viewBox="0 0 32 32">
  <path fill="#25D366" d="M16 .5C7.44.5.5 7.44.5 16c0 2.82.74 5.57 2.15 7.99L.5 31.5l7.7-2.11A15.4 15.4 0 0 0 16 31.5C24.56 31.5 31.5 24.56 31.5 16S24.56.5 16 .5z"/>
  <path fill="#fff" d="M23.2 19.3c-.4-.2-2.4-1.2-2.8-1.3-.4-.1-.7-.2-1 .2-.3.4-1.1 1.3-1.4 1.6-.3.3-.5.3-.9.1-.4-.2-1.7-.6-3.2-2-1.2-1.1-2-2.4-2.2-2.8-.2-.4 0-.6.2-.8.2-.2.4-.5.6-.7.2-.2.3-.4.5-.6.2-.2.3-.4.5-.7.2-.3.1-.5 0-.7-.1-.2-1-2.4-1.4-3.3-.4-.9-.7-.8-1-.8h-.8c-.3 0-.7.1-1 .5-.3.4-1.3 1.3-1.3 3.2 0 1.9 1.4 3.7 1.6 4 .2.3 2.7 4.2 6.5 5.9 3.8 1.7 3.8 1.1 4.5 1 .7-.1 2.4-1 2.7-1.9.3-.9.3-1.7.2-1.9-.1-.2-.3-.3-.7-.5z"/>
</svg>
